<svg width="1151" height="713" viewBox="0 0 1151 713" fill="none" xmlns="http://www.w3.org/2000/svg">
<path d="M284.749 303.737L367.565 255.552V159.184M284.749 303.737V207.368M284.749 303.737L200.427 255.552V159.184M367.565 159.184L284.749 207.368M367.565 159.184L284.749 111L200.427 159.184M284.749 207.368L200.427 159.184" stroke="#999999" stroke-width="2"/>
<path d="M173.322 369.994L256.139 321.81V225.442M173.322 369.994V273.626M173.322 369.994L89 321.81V225.442M256.139 225.442L173.322 273.626M256.139 225.442L173.322 177.258L89 225.442M173.322 273.626L89 225.442" stroke="#999999" stroke-width="2"/>
<path d="M286.252 562.729L369.069 514.545V418.176M286.252 562.729V466.36M286.252 562.729L201.93 514.545V418.176M369.069 418.176L286.252 466.36M369.069 418.176L286.252 369.992L201.93 418.176M286.252 466.36L201.93 418.176" stroke="#999999" stroke-width="2"/>
<path d="M399.184 499.48L482 451.296V354.928M399.184 499.48V403.112M399.184 499.48L314.861 451.296V354.928M482 354.928L399.184 403.112M482 354.928L399.184 306.744L314.861 354.928M399.184 403.112L314.861 354.928" stroke="#999999" stroke-width="2"/>
<path d="M173.322 499.48L256.139 451.296V354.928M173.322 499.48V403.112M173.322 499.48L89 451.296V354.928M256.139 354.928L173.322 403.112M256.139 354.928L173.322 306.744L89 354.928M173.322 403.112L89 354.928" stroke="#999999" stroke-width="2"/>
<path d="M399.184 369.994L482 321.81V225.442M399.184 369.994V273.626M399.184 369.994L314.861 321.81V225.442M482 225.442L399.184 273.626M482 225.442L399.184 177.258L314.861 225.442M399.184 273.626L314.861 225.442" stroke="#999999" stroke-width="2"/>
<path d="M284.749 436.241L367.565 388.057V291.689M284.749 436.241V339.873M284.749 436.241L200.427 388.057V291.689M367.565 291.689L284.749 339.873M367.565 291.689L284.749 243.504L200.427 291.689M284.749 339.873L200.427 291.689" stroke="#999999" stroke-width="2"/>
<path d="M342.88 399H293.088V319.768H308.96V385.944H342.88V399ZM373.728 387.736C375.435 387.736 377.099 387.736 378.72 387.736C380.341 387.651 381.749 387.523 382.944 387.352V373.528C381.92 373.357 380.683 373.229 379.232 373.144C377.781 372.973 376.459 372.888 375.264 372.888C373.643 372.888 372.064 373.016 370.528 373.272C368.992 373.443 367.627 373.784 366.432 374.296C365.323 374.808 364.427 375.533 363.744 376.472C363.061 377.411 362.72 378.648 362.72 380.184C362.72 382.915 363.744 384.877 365.792 386.072C367.84 387.181 370.485 387.736 373.728 387.736ZM372.32 337.304C377.269 337.304 381.365 337.901 384.608 339.096C387.936 340.205 390.581 341.827 392.544 343.96C394.507 346.008 395.915 348.568 396.768 351.64C397.621 354.627 398.048 357.997 398.048 361.752V397.592C395.744 398.104 392.331 398.701 387.808 399.384C383.285 400.067 378.208 400.408 372.576 400.408C368.736 400.408 365.237 400.067 362.08 399.384C359.008 398.701 356.363 397.592 354.144 396.056C351.925 394.435 350.219 392.387 349.024 389.912C347.829 387.352 347.232 384.237 347.232 380.568C347.232 377.069 347.915 374.125 349.28 371.736C350.645 369.347 352.48 367.427 354.784 365.976C357.088 364.525 359.733 363.501 362.72 362.904C365.707 362.221 368.821 361.88 372.064 361.88C376.16 361.88 379.787 362.221 382.944 362.904V360.984C382.944 357.997 382.005 355.523 380.128 353.56C378.251 351.512 375.008 350.488 370.4 350.488C367.413 350.488 364.512 350.701 361.696 351.128C358.965 351.555 356.747 352.067 355.04 352.664L352.864 339.992C354.827 339.309 357.6 338.712 361.184 338.2C364.768 337.603 368.48 337.304 372.32 337.304ZM459.616 338.84C457.995 344.472 456.416 350.019 454.88 355.48C453.429 360.856 451.893 366.147 450.272 371.352C448.651 376.472 446.901 381.507 445.024 386.456C443.232 391.405 441.269 396.227 439.136 400.92C437.515 404.333 435.893 407.277 434.272 409.752C432.736 412.227 430.987 414.232 429.024 415.768C427.147 417.389 425.013 418.584 422.624 419.352C420.32 420.12 417.589 420.504 414.432 420.504C411.787 420.504 409.355 420.291 407.136 419.864C405.003 419.437 403.211 418.883 401.76 418.2L404.704 405.016C406.411 405.784 407.904 406.296 409.184 406.552C410.549 406.893 412 407.064 413.536 407.064C416.608 407.064 419.083 406.04 420.96 403.992C422.837 401.944 424.331 399.512 425.44 396.696C421.685 389.187 417.931 380.611 414.176 370.968C410.421 361.24 407.008 350.531 403.936 338.84H420.32C421.088 341.997 421.941 345.368 422.88 348.952C423.904 352.536 424.971 356.12 426.08 359.704C427.189 363.288 428.341 366.829 429.536 370.328C430.816 373.741 432.096 376.941 433.376 379.928C434.229 376.941 435.125 373.741 436.064 370.328C437.003 366.829 437.899 363.331 438.752 359.832C439.605 356.248 440.416 352.664 441.184 349.08C442.037 345.496 442.805 342.083 443.488 338.84H459.616ZM460.768 369.432C460.768 364.141 461.579 359.491 463.2 355.48C464.821 351.469 466.955 348.141 469.6 345.496C472.245 342.765 475.275 340.717 478.688 339.352C482.101 337.987 485.6 337.304 489.184 337.304C498.059 337.304 504.8 339.949 509.408 345.24C514.016 350.445 516.32 358.083 516.32 368.152C516.32 369.176 516.277 370.243 516.192 371.352C516.192 372.461 516.149 373.357 516.064 374.04H477.024C477.024 377.965 478.645 381.08 481.888 383.384C485.131 385.603 489.312 386.712 494.432 386.712C497.589 386.712 500.576 386.371 503.392 385.688C506.293 385.005 508.725 384.323 510.688 383.64L512.864 397.08C510.133 398.019 507.232 398.787 504.16 399.384C501.088 400.067 497.632 400.408 493.792 400.408C488.672 400.408 484.064 399.768 479.968 398.488C475.957 397.123 472.501 395.16 469.6 392.6C466.784 389.955 464.608 386.712 463.072 382.872C461.536 379.032 460.768 374.552 460.768 369.432ZM501.088 363.16C501.088 361.539 500.875 360.003 500.448 358.552C500.021 357.016 499.339 355.651 498.4 354.456C497.461 353.261 496.267 352.323 494.816 351.64C493.365 350.872 491.573 350.488 489.44 350.488C487.392 350.488 485.6 350.829 484.064 351.512C482.613 352.195 481.376 353.133 480.352 354.328C479.413 355.523 478.645 356.888 478.048 358.424C477.536 359.96 477.195 361.539 477.024 363.16H501.088ZM570.336 354.84C569.312 354.584 568.075 354.328 566.624 354.072C565.259 353.816 563.851 353.603 562.4 353.432C560.949 353.176 559.541 353.005 558.176 352.92C556.811 352.835 555.659 352.792 554.72 352.792C552.501 352.792 550.325 352.92 548.192 353.176C546.059 353.347 543.883 353.731 541.664 354.328V399H525.792V342.808C529.973 341.272 534.24 340.035 538.592 339.096C543.029 338.157 548.192 337.688 554.08 337.688C554.933 337.688 556.128 337.731 557.664 337.816C559.285 337.901 560.992 338.072 562.784 338.328C564.576 338.499 566.368 338.755 568.16 339.096C570.037 339.352 571.701 339.736 573.152 340.248L570.336 354.84ZM630.24 319.768V399H614.496V364.056H593.504V399H577.76V319.768H593.504V351H614.496V319.768H630.24ZM690.016 368.792C690.016 373.571 689.333 377.923 687.968 381.848C686.603 385.688 684.683 389.016 682.208 391.832C679.733 394.648 676.747 396.824 673.248 398.36C669.835 399.896 665.995 400.664 661.728 400.664C657.461 400.664 653.579 399.896 650.08 398.36C646.667 396.824 643.68 394.648 641.12 391.832C638.645 389.016 636.725 385.688 635.36 381.848C633.995 377.923 633.312 373.571 633.312 368.792C633.312 364.099 633.995 359.832 635.36 355.992C636.811 352.067 638.773 348.739 641.248 346.008C643.808 343.192 646.837 341.059 650.336 339.608C653.835 338.072 657.632 337.304 661.728 337.304C665.909 337.304 669.707 338.072 673.12 339.608C676.619 341.059 679.605 343.192 682.08 346.008C684.64 348.739 686.603 352.067 687.968 355.992C689.333 359.832 690.016 364.099 690.016 368.792ZM649.312 368.92C649.312 374.296 650.251 378.648 652.128 381.976C654.091 385.304 657.205 386.968 661.472 386.968C665.568 386.968 668.64 385.304 670.688 381.976C672.821 378.648 673.888 374.296 673.888 368.92C673.888 363.544 672.907 359.235 670.944 355.992C669.067 352.664 665.995 351 661.728 351C657.632 351 654.517 352.664 652.384 355.992C650.336 359.235 649.312 363.544 649.312 368.92ZM743.136 354.84C742.112 354.584 740.875 354.328 739.424 354.072C738.059 353.816 736.651 353.603 735.2 353.432C733.749 353.176 732.341 353.005 730.976 352.92C729.611 352.835 728.459 352.792 727.52 352.792C725.301 352.792 723.125 352.92 720.992 353.176C718.859 353.347 716.683 353.731 714.464 354.328V399H698.592V342.808C702.773 341.272 707.04 340.035 711.392 339.096C715.829 338.157 720.992 337.688 726.88 337.688C727.733 337.688 728.928 337.731 730.464 337.816C732.085 337.901 733.792 338.072 735.584 338.328C737.376 338.499 739.168 338.755 740.96 339.096C742.837 339.352 744.501 339.736 745.952 340.248L743.136 354.84ZM781.152 321.56C781.152 324.632 780.171 327.064 778.208 328.856C776.245 330.648 773.899 331.544 771.168 331.544C768.437 331.544 766.091 330.648 764.128 328.856C762.251 327.064 761.312 324.632 761.312 321.56C761.312 318.403 762.251 315.928 764.128 314.136C766.091 312.344 768.437 311.448 771.168 311.448C773.899 311.448 776.245 312.344 778.208 314.136C780.171 315.928 781.152 318.403 781.152 321.56ZM804.576 396.44C801.333 397.976 798.261 399 795.36 399.512C792.544 400.109 789.941 400.408 787.552 400.408C783.456 400.408 780 399.811 777.184 398.616C774.453 397.421 772.235 395.715 770.528 393.496C768.907 391.192 767.755 388.419 767.072 385.176C766.389 381.933 766.048 378.221 766.048 374.04V351.896H749.408V338.84H781.792V376.088C781.792 379.672 782.432 382.36 783.712 384.152C785.077 385.859 787.296 386.712 790.368 386.712C791.819 386.712 793.568 386.541 795.616 386.2C797.664 385.773 799.968 384.963 802.528 383.768L804.576 396.44ZM856.928 350.36C855.733 351.725 854.027 353.773 851.808 356.504C849.589 359.149 847.157 362.136 844.512 365.464C841.952 368.792 839.349 372.291 836.704 375.96C834.144 379.544 831.84 382.872 829.792 385.944H858.208V399H810.976V389.4C812.939 386.157 815.072 382.829 817.376 379.416C819.68 376.003 821.984 372.675 824.288 369.432C826.592 366.104 828.853 362.947 831.072 359.96C833.291 356.973 835.296 354.285 837.088 351.896H812.256V338.84H856.928V350.36ZM920.416 368.792C920.416 373.571 919.733 377.923 918.368 381.848C917.003 385.688 915.083 389.016 912.608 391.832C910.133 394.648 907.147 396.824 903.648 398.36C900.235 399.896 896.395 400.664 892.128 400.664C887.861 400.664 883.979 399.896 880.48 398.36C877.067 396.824 874.08 394.648 871.52 391.832C869.045 389.016 867.125 385.688 865.76 381.848C864.395 377.923 863.712 373.571 863.712 368.792C863.712 364.099 864.395 359.832 865.76 355.992C867.211 352.067 869.173 348.739 871.648 346.008C874.208 343.192 877.237 341.059 880.736 339.608C884.235 338.072 888.032 337.304 892.128 337.304C896.309 337.304 900.107 338.072 903.52 339.608C907.019 341.059 910.005 343.192 912.48 346.008C915.04 348.739 917.003 352.067 918.368 355.992C919.733 359.832 920.416 364.099 920.416 368.792ZM879.712 368.92C879.712 374.296 880.651 378.648 882.528 381.976C884.491 385.304 887.605 386.968 891.872 386.968C895.968 386.968 899.04 385.304 901.088 381.976C903.221 378.648 904.288 374.296 904.288 368.92C904.288 363.544 903.307 359.235 901.344 355.992C899.467 352.664 896.395 351 892.128 351C888.032 351 884.917 352.664 882.784 355.992C880.736 359.235 879.712 363.544 879.712 368.92ZM925.664 340.76C928.48 339.992 931.936 339.267 936.032 338.584C940.213 337.901 944.736 337.56 949.6 337.56C954.379 337.56 958.347 338.243 961.504 339.608C964.661 340.888 967.136 342.765 968.928 345.24C970.805 347.629 972.128 350.531 972.896 353.944C973.664 357.272 974.048 360.984 974.048 365.08V399H958.304V367.128C958.304 361.496 957.664 357.443 956.384 354.968C955.104 352.493 952.501 351.256 948.576 351.256C947.381 351.256 946.187 351.299 944.992 351.384C943.883 351.469 942.688 351.597 941.408 351.768V399H925.664V340.76Z" fill="#272727"/>
</svg>
